<svg id="Layer_1" data-name="Layer 1" xmlns="http://www.w3.org/2000/svg" xmlns:xlink="http://www.w3.org/1999/xlink" viewBox="0 0 96.34 42.08"><defs><style>.cls-1{fill:none;}.cls-2{isolation:isolate;}.cls-3{clip-path:url(#clip-path);}.cls-4{fill:#0e5685;}.cls-5{fill:#0e5380;}.cls-6{fill:#0f5c8e;}.cls-7{fill:gray;}.cls-8{clip-path:url(#clip-path-2);}.cls-9{clip-path:url(#clip-path-3);}.cls-10{fill:#858585;}.cls-11{clip-path:url(#clip-path-4);}.cls-12{fill:#0f5d8f;}.cls-13{fill:#0f5a8a;}.cls-14{clip-path:url(#clip-path-5);}.cls-15{fill:#8f8f8f;}.cls-16{fill:#8a8a8a;}.cls-17{clip-path:url(#clip-path-6);}.cls-18{clip-path:url(#clip-path-7);}.cls-19{clip-path:url(#clip-path-8);}.cls-20{clip-path:url(#clip-path-9);}.cls-21{clip-path:url(#clip-path-10);}.cls-22{fill:#e0e0e0;}.cls-23{fill:#1892e0;}.cls-24{clip-path:url(#clip-path-11);}.cls-25{clip-path:url(#clip-path-12);}.cls-26{fill:#8e8e8e;}.cls-27{clip-path:url(#clip-path-13);}.cls-28{clip-path:url(#clip-path-14);}.cls-29{clip-path:url(#clip-path-15);}.cls-30{clip-path:url(#clip-path-16);}.cls-31{clip-path:url(#clip-path-17);}.cls-32{clip-path:url(#clip-path-18);}.cls-33{clip-path:url(#clip-path-19);}.cls-34{clip-path:url(#clip-path-20);}.cls-35{clip-path:url(#clip-path-21);}.cls-36{clip-path:url(#clip-path-22);}.cls-37{clip-path:url(#clip-path-23);}.cls-38{clip-path:url(#clip-path-24);}.cls-39{clip-path:url(#clip-path-25);}.cls-40{clip-path:url(#clip-path-26);}.cls-41{clip-path:url(#clip-path-27);}.cls-42{clip-path:url(#clip-path-28);}.cls-43{clip-path:url(#clip-path-29);}.cls-44{clip-path:url(#clip-path-30);}.cls-45{clip-path:url(#clip-path-31);}.cls-46{clip-path:url(#clip-path-32);}.cls-47{clip-path:url(#clip-path-33);}.cls-48{clip-path:url(#clip-path-34);}.cls-49{clip-path:url(#clip-path-35);}.cls-50{clip-path:url(#clip-path-36);}.cls-51{clip-path:url(#clip-path-37);}.cls-52{clip-path:url(#clip-path-38);}.cls-53{clip-path:url(#clip-path-39);}.cls-54{clip-path:url(#clip-path-40);}.cls-55{clip-path:url(#clip-path-41);}.cls-56{clip-path:url(#clip-path-42);}.cls-57{clip-path:url(#clip-path-43);}.cls-58{clip-path:url(#clip-path-44);}.cls-59{clip-path:url(#clip-path-45);}.cls-60{clip-path:url(#clip-path-46);}.cls-61{clip-path:url(#clip-path-47);}.cls-62{clip-path:url(#clip-path-48);}.cls-63{clip-path:url(#clip-path-49);}.cls-64{clip-path:url(#clip-path-50);}.cls-65{clip-path:url(#clip-path-51);}.cls-66{clip-path:url(#clip-path-52);}.cls-67{clip-path:url(#clip-path-53);}.cls-68{clip-path:url(#clip-path-54);}.cls-69{clip-path:url(#clip-path-55);}.cls-70{clip-path:url(#clip-path-56);}.cls-71{clip-path:url(#clip-path-57);}.cls-72{clip-path:url(#clip-path-58);}.cls-73{clip-path:url(#clip-path-59);}.cls-74{clip-path:url(#clip-path-60);}.cls-75{clip-path:url(#clip-path-61);}.cls-76{clip-path:url(#clip-path-62);}.cls-77{clip-path:url(#clip-path-63);}.cls-78{clip-path:url(#clip-path-64);}.cls-79{clip-path:url(#clip-path-65);}.cls-80{clip-path:url(#clip-path-66);}.cls-81{clip-path:url(#clip-path-67);}</style><clipPath id="clip-path" transform="translate(-2.72 -28.12)"><path class="cls-1" d="M96,54.22H93.33a14.55,14.55,0,0,1-.16-2.4h2.61A14.47,14.47,0,0,0,96,54.22Z"/></clipPath><clipPath id="clip-path-2" transform="translate(-2.72 -28.12)"><path class="cls-1" d="M95.78,48.07H93.17c0-2-.75-4.11-3.81-4.11H92C95,44,95.78,46.06,95.78,48.07Z"/></clipPath><clipPath id="clip-path-3" transform="translate(-2.72 -28.12)"><path class="cls-1" d="M94,47.64H91.37a2.07,2.07,0,0,0-2.28-2.33H91.7A2.08,2.08,0,0,1,94,47.64Z"/></clipPath><clipPath id="clip-path-4" transform="translate(-2.72 -28.12)"><path class="cls-1" d="M88.41,54.46A3.73,3.73,0,0,0,91.47,53h2.62A3.73,3.73,0,0,1,91,54.46Z"/></clipPath><clipPath id="clip-path-5" transform="translate(-2.72 -28.12)"><path class="cls-1" d="M91.5,53.11H88.88a2.5,2.5,0,0,0,2.43-1.68,1.91,1.91,0,0,0,.1-.58H94a1.65,1.65,0,0,1-.1.58A2.48,2.48,0,0,1,91.5,53.11Z"/></clipPath><clipPath id="clip-path-6" transform="translate(-2.72 -28.12)"><path class="cls-1" d="M88.88,53.11a1.62,1.62,0,0,1-1.72-1.74h2.62a1.62,1.62,0,0,0,1.72,1.74Z"/></clipPath><clipPath id="clip-path-7" transform="translate(-2.72 -28.12)"><path class="cls-1" d="M91.15,49.1h2.61c-1.92,0-4,.4-4,2.27H87.16C87.16,49.5,89.23,49.1,91.15,49.1Z"/></clipPath><clipPath id="clip-path-8" transform="translate(-2.72 -28.12)"><path class="cls-1" d="M89.1,46.06H86.48a5,5,0,0,1,2.61-.75H91.7A5,5,0,0,0,89.1,46.06Z"/></clipPath><clipPath id="clip-path-9" transform="translate(-2.72 -28.12)"><path class="cls-1" d="M88.68,44.86H86.07a6.19,6.19,0,0,1,3.29-.9H92A6.24,6.24,0,0,0,88.68,44.86Z"/></clipPath><clipPath id="clip-path-10" transform="translate(-2.72 -28.12)"><path class="cls-1" d="M91,54.46H88.41a2.85,2.85,0,0,1-3.06-2.88c0-2.41,2.12-3.74,5.94-3.74h2.62c-3.83,0-5.94,1.33-5.94,3.74A2.85,2.85,0,0,0,91,54.46Z"/></clipPath><clipPath id="clip-path-11" transform="translate(-2.72 -28.12)"><path class="cls-1" d="M85.93,41.38H83.32a1.08,1.08,0,0,0-1.12-1.14h2.62A1.07,1.07,0,0,1,85.93,41.38Z"/></clipPath><clipPath id="clip-path-12" transform="translate(-2.72 -28.12)"><path class="cls-1" d="M84.77,42.5H82.16a1.08,1.08,0,0,0,1.16-1.12h2.61A1.07,1.07,0,0,1,84.77,42.5Z"/></clipPath><clipPath id="clip-path-13" transform="translate(-2.72 -28.12)"><path class="cls-1" d="M84.77,42.5H82.16a1.09,1.09,0,0,1-1.1-1.12,1.11,1.11,0,0,1,1.14-1.14h2.62a1.1,1.1,0,0,0-1.14,1.14A1.09,1.09,0,0,0,84.77,42.5Z"/></clipPath><clipPath id="clip-path-14" transform="translate(-2.72 -28.12)"><path class="cls-1" d="M81,54.22H78.36c-.07-.68-.08-1.7-.08-2.59h2.61C80.89,52.52,80.91,53.54,81,54.22Z"/></clipPath><clipPath id="clip-path-15" transform="translate(-2.72 -28.12)"><path class="cls-1" d="M76.48,52.7a2.12,2.12,0,0,0,.11-.21h2.62a1.13,1.13,0,0,1-.12.21H76.48Z"/></clipPath><clipPath id="clip-path-16" transform="translate(-2.72 -28.12)"><path class="cls-1" d="M76.45,45.5l0,0h2.62l0,0Z"/></clipPath><clipPath id="clip-path-17" transform="translate(-2.72 -28.12)"><path class="cls-1" d="M76.42,45.46H79v0H76.43Z"/></clipPath><clipPath id="clip-path-18" transform="translate(-2.72 -28.12)"><path class="cls-1" d="M79.07,48.28H76.45a3.36,3.36,0,0,0-.08-.77H79A3.36,3.36,0,0,1,79.07,48.28Z"/></clipPath><clipPath id="clip-path-19" transform="translate(-2.72 -28.12)"><path class="cls-1" d="M79,47.51H76.37a2.68,2.68,0,0,0-2.62-2.11h2.61A2.68,2.68,0,0,1,79,47.51Z"/></clipPath><clipPath id="clip-path-20" transform="translate(-2.72 -28.12)"><path class="cls-1" d="M73.18,54.46a3.74,3.74,0,0,0,3.3-1.76h2.61a3.73,3.73,0,0,1-3.29,1.76Z"/></clipPath><clipPath id="clip-path-21" transform="translate(-2.72 -28.12)"><path class="cls-1" d="M76.32,53H73.7a2.74,2.74,0,0,0,2.67-2.18,3.17,3.17,0,0,0,.08-.78h2.62a3.17,3.17,0,0,1-.08.78A2.75,2.75,0,0,1,76.32,53Z"/></clipPath><clipPath id="clip-path-22" transform="translate(-2.72 -28.12)"><path class="cls-1" d="M75,44h1a3.52,3.52,0,0,1,3,1.5H76.42a3.51,3.51,0,0,0-3-1.5H75Z"/></clipPath><clipPath id="clip-path-23" transform="translate(-2.72 -28.12)"><path class="cls-1" d="M70.74,49.27c0-2.21,1.12-3.87,3-3.87h2.61c-1.89,0-3,1.66-3,3.87,0,2,1,3.71,3,3.71H73.7C71.73,53,70.74,51.31,70.74,49.27Z"/></clipPath><clipPath id="clip-path-24" transform="translate(-2.72 -28.12)"><path class="cls-1" d="M75.8,54.46H73.18c-2.42,0-4.28-2.05-4.28-5.1,0-3.34,2-5.4,4.49-5.4H76c-2.43,0-4.51,2.06-4.48,5.4C71.52,52.41,73.38,54.46,75.8,54.46Z"/></clipPath><clipPath id="clip-path-25" transform="translate(-2.72 -28.12)"><path class="cls-1" d="M66.32,53H63.71a6.72,6.72,0,0,0,2.77-.52H69.1A6.74,6.74,0,0,1,66.32,53Z"/></clipPath><clipPath id="clip-path-26" transform="translate(-2.72 -28.12)"><path class="cls-1" d="M63.45,54.43a8,8,0,0,0,3.34-.62h2.62a8,8,0,0,1-3.34.62Z"/></clipPath><clipPath id="clip-path-27" transform="translate(-2.72 -28.12)"><path class="cls-1" d="M67.37,48.69c0-1.84-.87-4.73-4.14-4.73h2.62C69.12,44,70,46.85,70,48.69a6.9,6.9,0,0,1-.06.85H67.31A6.9,6.9,0,0,0,67.37,48.69Z"/></clipPath><clipPath id="clip-path-28" transform="translate(-2.72 -28.12)"><path class="cls-1" d="M68.23,48.24H65.61c0-1.16-.47-3-2.52-3H65.7C67.75,45.28,68.25,47.08,68.23,48.24Z"/></clipPath><clipPath id="clip-path-29" transform="translate(-2.72 -28.12)"><path class="cls-1" d="M60.29,48.24c.14-1.27,1-3,2.8-3H65.7c-1.84,0-2.65,1.69-2.79,3Z"/></clipPath><clipPath id="clip-path-30" transform="translate(-2.72 -28.12)"><path class="cls-1" d="M66.32,53H63.71a3.21,3.21,0,0,1-3.44-3.49h2.62A3.21,3.21,0,0,0,66.32,53Z"/></clipPath><clipPath id="clip-path-31" transform="translate(-2.72 -28.12)"><path class="cls-1" d="M66.07,54.43H63.45c-3.08,0-4.92-2-4.92-5.06S60.31,44,63.23,44h2.62c-2.92,0-4.7,2.39-4.7,5.41S63,54.43,66.07,54.43Z"/></clipPath><clipPath id="clip-path-32" transform="translate(-2.72 -28.12)"><path class="cls-1" d="M57,49.07C57,46,55.14,44,52.72,44h2.62c2.42,0,4.24,2.06,4.24,5.11,0,3.61-2.19,5.39-4.55,5.39H52.41C54.77,54.46,57,52.68,57,49.07Z"/></clipPath><clipPath id="clip-path-33" transform="translate(-2.72 -28.12)"><path class="cls-1" d="M54.72,53H52.1c1.93,0,3-1.58,3-3.88,0-2-1-3.73-3-3.73h2.61c1.93,0,3,1.72,3,3.73C57.76,51.45,56.64,53,54.72,53Z"/></clipPath><clipPath id="clip-path-34" transform="translate(-2.72 -28.12)"><path class="cls-1" d="M49.41,47.68a2.91,2.91,0,0,1,2.76-2.26h2.61A2.91,2.91,0,0,0,52,47.68Z"/></clipPath><clipPath id="clip-path-35" transform="translate(-2.72 -28.12)"><path class="cls-1" d="M52.1,53a2.82,2.82,0,0,1-2.73-2.14H52A2.82,2.82,0,0,0,54.72,53Z"/></clipPath><clipPath id="clip-path-36" transform="translate(-2.72 -28.12)"><path class="cls-1" d="M55,54.46H52.41a3.52,3.52,0,0,1-3.08-1.58h2.61A3.53,3.53,0,0,0,55,54.46Z"/></clipPath><clipPath id="clip-path-37" transform="translate(-2.72 -28.12)"><path class="cls-1" d="M52,50.89H49.37a4.19,4.19,0,0,1-.08-.74h2.62A3.43,3.43,0,0,0,52,50.89Z"/></clipPath><clipPath id="clip-path-38" transform="translate(-2.72 -28.12)"><path class="cls-1" d="M51.91,48.43H49.29a3.09,3.09,0,0,1,.12-.75H52A3.67,3.67,0,0,0,51.91,48.43Z"/></clipPath><clipPath id="clip-path-39" transform="translate(-2.72 -28.12)"><path class="cls-1" d="M51.78,45.92H49.16a3.94,3.94,0,0,1,3.56-2h2.62A3.93,3.93,0,0,0,51.78,45.92Z"/></clipPath><clipPath id="clip-path-40" transform="translate(-2.72 -28.12)"><path class="cls-1" d="M50.1,47.47H47.48c0-1.28,0-2.32-.08-3.27H50C50.06,45.15,50.1,46.19,50.1,47.47Z"/></clipPath><clipPath id="clip-path-41" transform="translate(-2.72 -28.12)"><path class="cls-1" d="M45.19,49.13c0-3.07-1.94-5.16-4.82-5.17H43c2.88,0,4.82,2.1,4.82,5.17,0,3.71-2.56,5.33-5,5.33H40.2C42.63,54.46,45.19,52.84,45.19,49.13Z"/></clipPath><clipPath id="clip-path-42" transform="translate(-2.72 -28.12)"><path class="cls-1" d="M42.9,53.09H40.28c1.75,0,3-1.64,3-3.9,0-1.7-.85-3.86-3-3.86H43c2.14,0,3,2.16,3,3.86C46,51.45,44.64,53.09,42.9,53.09Z"/></clipPath><clipPath id="clip-path-43" transform="translate(-2.72 -28.12)"><path class="cls-1" d="M37.25,49.23c0-1.91.93-3.9,3.08-3.9H43c-2.15,0-3.09,2-3.09,3.9,0,2.2,1.26,3.86,3,3.86H40.28C38.5,53.09,37.25,51.43,37.25,49.23Z"/></clipPath><clipPath id="clip-path-44" transform="translate(-2.72 -28.12)"><path class="cls-1" d="M42.82,54.46H40.2c-2.7,0-4.8-2-4.8-5.17,0-3.35,2.2-5.33,5-5.33H43c-2.78,0-5,2-5,5.33C38,52.47,40.11,54.46,42.82,54.46Z"/></clipPath><clipPath id="clip-path-45" transform="translate(-2.72 -28.12)"><path class="cls-1" d="M34.51,44A1.9,1.9,0,0,0,34,44h2.62a1.9,1.9,0,0,1,.51.07Z"/></clipPath><clipPath id="clip-path-46" transform="translate(-2.72 -28.12)"><path class="cls-1" d="M37.13,45.75H34.51a2.71,2.71,0,0,0-.62-.06h2.62A2.83,2.83,0,0,1,37.13,45.75Z"/></clipPath><clipPath id="clip-path-47" transform="translate(-2.72 -28.12)"><path class="cls-1" d="M33.89,45.69Z"/></clipPath><clipPath id="clip-path-48" transform="translate(-2.72 -28.12)"><path class="cls-1" d="M31.45,48a2.56,2.56,0,0,1,2.44-2.34h2.62A2.56,2.56,0,0,0,34.07,48Z"/></clipPath><clipPath id="clip-path-49" transform="translate(-2.72 -28.12)"><path class="cls-1" d="M34,48.88H31.37a5.34,5.34,0,0,1,.08-.85h2.62A5.34,5.34,0,0,0,34,48.88Z"/></clipPath><clipPath id="clip-path-50" transform="translate(-2.72 -28.12)"><path class="cls-1" d="M33.84,46.17H31.22A3,3,0,0,1,34,44h2.62A3,3,0,0,0,33.84,46.17Z"/></clipPath><clipPath id="clip-path-51" transform="translate(-2.72 -28.12)"><path class="cls-1" d="M32.19,47.32H29.57c0-1.18,0-2.19-.08-3.12h2.62C32.17,45.13,32.19,46.14,32.19,47.32Z"/></clipPath><clipPath id="clip-path-52" transform="translate(-2.72 -28.12)"><path class="cls-1" d="M22.13,58.81H19.51a5.07,5.07,0,0,0,2.24-1.18c1.24-1.08,2.13-2.85,3.44-6.29H27.8c-1.3,3.44-2.19,5.21-3.43,6.29A5.07,5.07,0,0,1,22.13,58.81Z"/></clipPath><clipPath id="clip-path-53" transform="translate(-2.72 -28.12)"><path class="cls-1" d="M23.36,52.17v0H26l0,0Z"/></clipPath><clipPath id="clip-path-54" transform="translate(-2.72 -28.12)"><path class="cls-1" d="M23.35,52.13h0Z"/></clipPath><clipPath id="clip-path-55" transform="translate(-2.72 -28.12)"><path class="cls-1" d="M25.94,52.17H23.32c.23-.59.44-1.37.69-2.09h2.61C26.37,50.81,26.17,51.58,25.94,52.17Z"/></clipPath><clipPath id="clip-path-56" transform="translate(-2.72 -28.12)"><path class="cls-1" d="M22.68,50.12h2.61c.23.65.47,1.42.67,2H23.34C23.14,51.54,22.9,50.77,22.68,50.12Z"/></clipPath><clipPath id="clip-path-57" transform="translate(-2.72 -28.12)"><path class="cls-1" d="M23.27,56.38H20.66a5.45,5.45,0,0,0,1.52-2,1.46,1.46,0,0,0,.15-.43,1.43,1.43,0,0,0-.13-.48h2.62a1.35,1.35,0,0,1,.12.48,1.38,1.38,0,0,1-.14.43A5.35,5.35,0,0,1,23.27,56.38Z"/></clipPath><clipPath id="clip-path-58" transform="translate(-2.72 -28.12)"><path class="cls-1" d="M21.68,57.28H19.06a5.17,5.17,0,0,0,1.6-.9h2.61A5.13,5.13,0,0,1,21.68,57.28Z"/></clipPath><clipPath id="clip-path-59" transform="translate(-2.72 -28.12)"><path class="cls-1" d="M15.3,41.89c-1.22-1.13-3.07-1.73-5.65-1.73h2.61c2.59,0,4.43.6,5.66,1.73a6.47,6.47,0,0,1,2,5,7.4,7.4,0,0,1-2,5.43H15.25a7.37,7.37,0,0,0,2-5.43A6.47,6.47,0,0,0,15.3,41.89Z"/></clipPath><clipPath id="clip-path-60" transform="translate(-2.72 -28.12)"><path class="cls-1" d="M12.06,52.9H9.44c3.85,0,5.94-2.16,5.94-5.93,0-3.29-1.84-5.38-5.65-5.38h2.61C16.15,41.59,18,43.68,18,47,18,50.74,15.9,52.9,12.06,52.9Z"/></clipPath><clipPath id="clip-path-61" transform="translate(-2.72 -28.12)"><path class="cls-1" d="M9.09,54.35c2.71,0,4.86-.7,6.16-2h2.62c-1.3,1.31-3.45,2-6.17,2Z"/></clipPath><clipPath id="clip-path-62" transform="translate(-2.72 -28.12)"><path class="cls-1" d="M9.44,52.9a10.48,10.48,0,0,1-1.82-.11h2.62a10.41,10.41,0,0,0,1.82.11Z"/></clipPath><clipPath id="clip-path-63" transform="translate(-2.72 -28.12)"><path class="cls-1" d="M7.62,41.77a10.6,10.6,0,0,1,2.11-.18h2.61a10.57,10.57,0,0,0-2.1.18Z"/></clipPath><clipPath id="clip-path-64" transform="translate(-2.72 -28.12)"><path class="cls-1" d="M11.7,54.35H9.09a30,30,0,0,1-3.27-.16H8.43A30.24,30.24,0,0,0,11.7,54.35Z"/></clipPath><clipPath id="clip-path-65" transform="translate(-2.72 -28.12)"><path class="cls-1" d="M8.43,40.45H5.82a25.13,25.13,0,0,1,3.83-.29h2.61A25.23,25.23,0,0,0,8.43,40.45Z"/></clipPath><clipPath id="clip-path-66" transform="translate(-2.72 -28.12)"><path class="cls-1" d="M17.32,70.2H14.71a12,12,0,0,1-12-12H5.33A12,12,0,0,0,17.32,70.2Z"/></clipPath><clipPath id="clip-path-67" transform="translate(-2.72 -28.12)"><path class="cls-1" d="M5.33,40.11H2.72a12,12,0,0,1,12-12h2.61A12,12,0,0,0,5.33,40.11Z"/></clipPath></defs><title>20190610_DyropediaLogo</title><g class="cls-2"><g class="cls-2"><g class="cls-3"><g class="cls-2"><path class="cls-4" d="M96,54.22H93.33a14.55,14.55,0,0,1-.16-2.4h2.61a14.47,14.47,0,0,0,.17,2.4" transform="translate(-2.72 -28.12)"/></g></g></g><rect class="cls-5" x="90.45" y="19.95" width="2.62" height="3.75"/><polygon class="cls-6" points="91.58 26.11 88.96 26.11 90.61 26.11 93.23 26.11 91.58 26.11"/><polygon class="cls-7" points="91.58 26.11 88.96 26.11 88.82 24.85 91.43 24.85 91.58 26.11"/><rect class="cls-7" x="88.69" y="20.99" width="2.62" height="1.75"/><rect class="cls-7" x="88.65" y="19.52" width="2.62" height="0.21"/><g class="cls-2"><g class="cls-8"><g class="cls-2"><path class="cls-4" d="M95.78,48.07H93.17c0-2-.75-4.11-3.81-4.11H92c3.07,0,3.81,2.1,3.81,4.11" transform="translate(-2.72 -28.12)"/></g></g></g><g class="cls-2"><g class="cls-9"><g class="cls-2"><path class="cls-10" d="M94,47.64H91.37a2.07,2.07,0,0,0-2.28-2.33H91.7A2.08,2.08,0,0,1,94,47.64" transform="translate(-2.72 -28.12)"/></g></g></g><g class="cls-2"><g class="cls-11"><g class="cls-2"><path class="cls-12" d="M91,54.46H88.41a3.36,3.36,0,0,0,.56,0h2.62a3.43,3.43,0,0,1-.56,0" transform="translate(-2.72 -28.12)"/><path class="cls-13" d="M91.59,54.42H89a4.44,4.44,0,0,0,.76-.18h2.62a4.44,4.44,0,0,1-.76.18" transform="translate(-2.72 -28.12)"/><path class="cls-4" d="M92.35,54.24H89.73A3.62,3.62,0,0,0,91.47,53h2.62a3.62,3.62,0,0,1-1.74,1.28" transform="translate(-2.72 -28.12)"/></g></g></g><g class="cls-2"><g class="cls-14"><g class="cls-2"><path class="cls-15" d="M91.5,53.11H88.88a2.6,2.6,0,0,0,.4,0h2.61a2.38,2.38,0,0,1-.39,0" transform="translate(-2.72 -28.12)"/><path class="cls-16" d="M91.89,53.08H89.28a2.11,2.11,0,0,0,.51-.12h2.62a2.08,2.08,0,0,1-.52.12" transform="translate(-2.72 -28.12)"/><path class="cls-10" d="M92.41,53H89.79a2.47,2.47,0,0,0,1.52-1.53,1.91,1.91,0,0,0,.1-.58H94a1.65,1.65,0,0,1-.1.58A2.43,2.43,0,0,1,92.41,53" transform="translate(-2.72 -28.12)"/></g></g></g><g class="cls-2"><g class="cls-17"><g class="cls-2"><path class="cls-4" d="M91.5,53.11H88.88a1.62,1.62,0,0,1-1.72-1.74h2.62a1.62,1.62,0,0,0,1.72,1.74" transform="translate(-2.72 -28.12)"/></g></g></g><g class="cls-2"><g class="cls-18"><g class="cls-2"><path class="cls-4" d="M89.78,51.37H87.16a2,2,0,0,1,1.55-1.94h2.62a2,2,0,0,0-1.55,1.94" transform="translate(-2.72 -28.12)"/><path class="cls-13" d="M91.33,49.43H88.71a5.78,5.78,0,0,1,1.07-.25h2.61a5.67,5.67,0,0,0-1.06.25" transform="translate(-2.72 -28.12)"/><path class="cls-12" d="M92.39,49.18H89.78a10.29,10.29,0,0,1,1.37-.08h2.61a10.39,10.39,0,0,0-1.37.08" transform="translate(-2.72 -28.12)"/></g></g></g><g class="cls-2"><g class="cls-19"><g class="cls-2"><path class="cls-4" d="M89.1,46.06H86.48a4.73,4.73,0,0,1,1-.46h2.62a4.49,4.49,0,0,0-1,.46" transform="translate(-2.72 -28.12)"/><path class="cls-13" d="M90.06,45.6H87.44a5.61,5.61,0,0,1,1-.24h2.62a5.61,5.61,0,0,0-1,.24" transform="translate(-2.72 -28.12)"/><path class="cls-12" d="M91.06,45.36H88.44a4.74,4.74,0,0,1,.65,0H91.7a4.6,4.6,0,0,0-.64,0" transform="translate(-2.72 -28.12)"/></g></g></g><g class="cls-2"><g class="cls-20"><g class="cls-2"><path class="cls-10" d="M88.68,44.86H86.07a4.68,4.68,0,0,1,1.1-.53h2.61a4.88,4.88,0,0,0-1.1.53" transform="translate(-2.72 -28.12)"/><path class="cls-16" d="M89.78,44.33H87.17a6.3,6.3,0,0,1,1.28-.3h2.61a6.47,6.47,0,0,0-1.28.3" transform="translate(-2.72 -28.12)"/><path class="cls-15" d="M91.06,44H88.45a6.71,6.71,0,0,1,.91-.07H92a7,7,0,0,0-.91.07" transform="translate(-2.72 -28.12)"/></g></g></g><g class="cls-2"><g class="cls-21"><g class="cls-2"><path class="cls-10" d="M91,54.46H88.41a2.85,2.85,0,0,1-3.06-2.88,3.33,3.33,0,0,1,2.57-3.26h2.61A3.33,3.33,0,0,0,88,51.58,2.85,2.85,0,0,0,91,54.46" transform="translate(-2.72 -28.12)"/><path class="cls-16" d="M90.53,48.32H87.92A8.55,8.55,0,0,1,89.5,48h2.62a8.48,8.48,0,0,0-1.59.36" transform="translate(-2.72 -28.12)"/><path class="cls-15" d="M92.12,48H89.5a12.5,12.5,0,0,1,1.79-.12h2.62a12.4,12.4,0,0,0-1.79.12" transform="translate(-2.72 -28.12)"/></g></g></g><path class="cls-22" d="M95.78,51.82a14.47,14.47,0,0,0,.17,2.4H94.29L94.15,53h-.06A3.73,3.73,0,0,1,91,54.46,2.85,2.85,0,0,1,88,51.58c0-2.41,2.11-3.74,5.94-3.74H94v-.2a2.08,2.08,0,0,0-2.29-2.33,5,5,0,0,0-2.6.75l-.42-1.2A6.24,6.24,0,0,1,92,44c3.07,0,3.81,2.1,3.81,4.11Zm-1.76-1V49.1h-.26c-1.92,0-4,.4-4,2.27a1.62,1.62,0,0,0,1.72,1.74,2.48,2.48,0,0,0,2.42-1.68,1.65,1.65,0,0,0,.1-.58" transform="translate(-2.72 -28.12)"/><path class="cls-23" d="M89.78,51.37c0-1.87,2.06-2.27,4-2.27H94v1.75a1.65,1.65,0,0,1-.1.58,2.48,2.48,0,0,1-2.42,1.68A1.62,1.62,0,0,1,89.78,51.37Z" transform="translate(-2.72 -28.12)"/><polygon class="cls-7" points="86.38 17.95 83.77 17.95 83.35 16.74 85.97 16.74 86.38 17.95"/><rect class="cls-5" x="80.39" y="16.08" width="2.62" height="10.03"/><g class="cls-2"><g class="cls-24"><g class="cls-2"><path class="cls-4" d="M85.93,41.38H83.32a1.08,1.08,0,0,0-1.12-1.14h2.62a1.07,1.07,0,0,1,1.11,1.14" transform="translate(-2.72 -28.12)"/></g></g></g><g class="cls-2"><g class="cls-25"><g class="cls-2"><path class="cls-12" d="M84.77,42.5H82.16l.2,0H85l-.21,0" transform="translate(-2.72 -28.12)"/><path class="cls-13" d="M85,42.48H82.36a1,1,0,0,0,.25-.06h2.62a1,1,0,0,1-.25.06" transform="translate(-2.72 -28.12)"/><path class="cls-4" d="M85.23,42.42H82.61a1,1,0,0,0,.71-1h2.61a1,1,0,0,1-.7,1" transform="translate(-2.72 -28.12)"/></g></g></g><polygon class="cls-6" points="81.2 26.11 78.58 26.11 80.39 26.11 83.01 26.11 81.2 26.11"/><rect class="cls-7" x="78.58" y="16.08" width="2.62" height="10.03"/><polygon class="cls-26" points="81.2 16.08 78.58 16.08 80.39 16.08 83.01 16.08 81.2 16.08"/><rect class="cls-22" x="81.2" y="16.08" width="1.82" height="10.03"/><g class="cls-2"><g class="cls-27"><g class="cls-2"><path class="cls-10" d="M84.77,42.5H82.16a1.13,1.13,0,0,1-.36-2.19h2.62a1.13,1.13,0,0,0,.35,2.19" transform="translate(-2.72 -28.12)"/><path class="cls-16" d="M84.42,40.31H81.8a.86.86,0,0,1,.23-.06h2.62a.86.86,0,0,0-.23.06" transform="translate(-2.72 -28.12)"/><path class="cls-15" d="M84.65,40.25h0" transform="translate(-2.72 -28.12)"/></g></g></g><g class="cls-2"><g class="cls-28"><g class="cls-2"><path class="cls-4" d="M81,54.22H78.36c-.07-.68-.08-1.7-.08-2.59h2.61c0,.89,0,1.91.08,2.59" transform="translate(-2.72 -28.12)"/></g></g></g><rect class="cls-5" x="75.56" y="11.39" width="2.62" height="12.12"/><polygon class="cls-6" points="76.62 26.11 74 26.11 75.64 26.11 78.26 26.11 76.62 26.11"/><polygon class="cls-7" points="76.62 26.11 74 26.11 73.92 24.37 76.54 24.37 76.62 26.11"/><g class="cls-2"><g class="cls-29"><g class="cls-2"><path class="cls-4" d="M77.19,54.23H74.57a3.52,3.52,0,0,0,2-1.74h2.62a3.52,3.52,0,0,1-2,1.74" transform="translate(-2.72 -28.12)"/></g></g></g><rect class="cls-7" x="73.73" y="20.16" width="2.62" height="1.75"/><g class="cls-2"><g class="cls-30"><g class="cls-2"><path class="cls-4" d="M79.07,45.5H76.45A3.46,3.46,0,0,0,73.39,44H76a3.48,3.48,0,0,1,3.07,1.54" transform="translate(-2.72 -28.12)"/></g></g></g><g class="cls-2"><g class="cls-31"><g class="cls-2"><path class="cls-4" d="M79.07,45.5H76.45A3.46,3.46,0,0,0,73.39,44H76a3.48,3.48,0,0,1,3.07,1.54" transform="translate(-2.72 -28.12)"/></g></g></g><polygon class="cls-7" points="76.32 17.39 73.7 17.39 73.73 11.39 76.35 11.39 76.32 17.39"/><g class="cls-2"><g class="cls-32"><g class="cls-2"><path class="cls-10" d="M79.07,48.28H76.45a3.36,3.36,0,0,0-.08-.77H79a3.36,3.36,0,0,1,.08.77" transform="translate(-2.72 -28.12)"/></g></g></g><g class="cls-2"><g class="cls-33"><g class="cls-2"><path class="cls-10" d="M79,47.51H76.37a2.68,2.68,0,0,0-2.62-2.11h2.61A2.68,2.68,0,0,1,79,47.51" transform="translate(-2.72 -28.12)"/></g></g></g><g class="cls-2"><g class="cls-34"><g class="cls-2"><path class="cls-12" d="M75.8,54.46H73.18a3.86,3.86,0,0,0,.6,0H76.4a3.94,3.94,0,0,1-.6,0" transform="translate(-2.72 -28.12)"/><path class="cls-13" d="M76.4,54.42H73.78a3.8,3.8,0,0,0,.79-.19h2.62a4,4,0,0,1-.79.19" transform="translate(-2.72 -28.12)"/><path class="cls-4" d="M77.19,54.23H74.57a3.52,3.52,0,0,0,2-1.74h2.62a3.52,3.52,0,0,1-2,1.74" transform="translate(-2.72 -28.12)"/></g></g></g><g class="cls-2"><g class="cls-35"><g class="cls-2"><path class="cls-15" d="M76.32,53H73.7l.37,0h2.62l-.37,0" transform="translate(-2.72 -28.12)"/><path class="cls-16" d="M76.69,53H74.07a3,3,0,0,0,.52-.13h2.62a3,3,0,0,1-.52.13" transform="translate(-2.72 -28.12)"/><path class="cls-10" d="M77.21,52.83H74.59a2.78,2.78,0,0,0,1.78-2,3.17,3.17,0,0,0,.08-.78h2.62a3.17,3.17,0,0,1-.08.78,2.78,2.78,0,0,1-1.78,2" transform="translate(-2.72 -28.12)"/></g></g></g><g class="cls-2"><g class="cls-36"><g class="cls-2"><path class="cls-4" d="M79.07,45.5H76.45A3.46,3.46,0,0,0,73.39,44H76a3.48,3.48,0,0,1,3.07,1.54" transform="translate(-2.72 -28.12)"/></g></g></g><g class="cls-2"><g class="cls-37"><g class="cls-2"><path class="cls-4" d="M76.32,53H73.7c-2,0-3-1.67-3-3.71,0-1.81.75-3.26,2.07-3.72h2.61c-1.31.46-2.06,1.91-2.06,3.72,0,2,1,3.71,3,3.71" transform="translate(-2.72 -28.12)"/><path class="cls-13" d="M75.42,45.55H72.81a2.93,2.93,0,0,1,.53-.13H76a3.16,3.16,0,0,0-.53.13" transform="translate(-2.72 -28.12)"/><path class="cls-12" d="M76,45.42H73.34l.41,0h2.61l-.41,0" transform="translate(-2.72 -28.12)"/></g></g></g><g class="cls-2"><g class="cls-38"><g class="cls-2"><path class="cls-10" d="M75.8,54.46H73.18c-2.42,0-4.28-2.05-4.28-5.1,0-2.69,1.32-4.54,3.11-5.16h2.61c-1.79.62-3.12,2.47-3.1,5.16,0,3,1.86,5.1,4.28,5.1" transform="translate(-2.72 -28.12)"/><path class="cls-16" d="M74.62,44.2H72a4.07,4.07,0,0,1,.8-.2h2.62a4.36,4.36,0,0,0-.81.2" transform="translate(-2.72 -28.12)"/><path class="cls-15" d="M75.43,44H72.81a5.46,5.46,0,0,1,.58,0H76a5.46,5.46,0,0,0-.57,0" transform="translate(-2.72 -28.12)"/></g></g></g><path class="cls-22" d="M80.89,51.63c0,.89,0,1.91.08,2.59H79.34l-.08-1.73h-.05a3.72,3.72,0,0,1-3.41,2c-2.42,0-4.28-2.05-4.28-5.1,0-3.34,2-5.4,4.48-5.4a3.36,3.36,0,0,1,3,1.54l0-6h1.82ZM79.07,50V48.28a3.36,3.36,0,0,0-.08-.77,2.68,2.68,0,0,0-2.63-2.11c-1.89,0-3,1.66-3,3.87,0,2,1,3.71,3,3.71A2.75,2.75,0,0,0,79,50.8a3.17,3.17,0,0,0,.08-.78" transform="translate(-2.72 -28.12)"/><polygon class="cls-5" points="66.69 25.7 64.07 25.7 63.77 24.39 66.38 24.39 66.69 25.7"/><g class="cls-2"><g class="cls-39"><g class="cls-2"><path class="cls-15" d="M66.32,53H63.71A9.72,9.72,0,0,0,64.86,53h2.62a9.77,9.77,0,0,1-1.16.07" transform="translate(-2.72 -28.12)"/><path class="cls-16" d="M67.48,53H64.86a6.29,6.29,0,0,0,1.19-.29h2.62a6.48,6.48,0,0,1-1.19.29" transform="translate(-2.72 -28.12)"/><path class="cls-10" d="M68.67,52.67H66.05l.43-.16H69.1l-.43.16" transform="translate(-2.72 -28.12)"/></g></g></g><g class="cls-2"><g class="cls-40"><g class="cls-2"><path class="cls-12" d="M66.07,54.43H63.45a9.93,9.93,0,0,0,1.41-.09h2.62a10,10,0,0,1-1.41.09" transform="translate(-2.72 -28.12)"/><path class="cls-13" d="M67.48,54.34H64.86A7.07,7.07,0,0,0,66.31,54h2.62a7.23,7.23,0,0,1-1.45.34" transform="translate(-2.72 -28.12)"/><path class="cls-4" d="M68.93,54H66.31a3.69,3.69,0,0,0,.48-.19h2.62a3.69,3.69,0,0,1-.48.19" transform="translate(-2.72 -28.12)"/></g></g></g><g class="cls-2"><g class="cls-41"><g class="cls-2"><path class="cls-4" d="M69.93,49.54H67.31a6.9,6.9,0,0,0,.06-.85c0-1.84-.87-4.73-4.14-4.73h2.62C69.12,44,70,46.85,70,48.69a6.9,6.9,0,0,1-.06.85" transform="translate(-2.72 -28.12)"/></g></g></g><g class="cls-2"><g class="cls-42"><g class="cls-2"><path class="cls-10" d="M68.23,48.24H65.61c0-1.16-.47-3-2.52-3H65.7c2,0,2.55,1.8,2.53,3" transform="translate(-2.72 -28.12)"/></g></g></g><polygon class="cls-26" points="60.19 20.12 57.58 20.12 62.9 20.12 65.51 20.12 60.19 20.12"/><g class="cls-2"><g class="cls-43"><g class="cls-2"><path class="cls-4" d="M62.91,48.24H60.29a3.29,3.29,0,0,1,1.93-2.82h2.61a3.3,3.3,0,0,0-1.92,2.82" transform="translate(-2.72 -28.12)"/><path class="cls-13" d="M64.83,45.42H62.22a3.19,3.19,0,0,1,.49-.12h2.61a3.89,3.89,0,0,0-.49.12" transform="translate(-2.72 -28.12)"/><path class="cls-12" d="M65.32,45.3H62.71l.38,0H65.7l-.38,0" transform="translate(-2.72 -28.12)"/></g></g></g><path class="cls-23" d="M65.7,45.28c2,0,2.55,1.8,2.53,3H62.91C63.05,47,63.86,45.28,65.7,45.28Z" transform="translate(-2.72 -28.12)"/><g class="cls-2"><g class="cls-44"><g class="cls-2"><path class="cls-4" d="M66.32,53H63.71a3.21,3.21,0,0,1-3.44-3.49h2.62A3.21,3.21,0,0,0,66.32,53" transform="translate(-2.72 -28.12)"/></g></g></g><polygon class="cls-6" points="60.17 21.43 57.56 21.43 64.59 21.43 67.21 21.43 60.17 21.43"/><g class="cls-2"><g class="cls-45"><g class="cls-2"><path class="cls-10" d="M66.07,54.43H63.45c-3.08,0-4.92-2-4.92-5.06,0-2.44,1.16-4.46,3.14-5.15h2.61c-2,.69-3.13,2.71-3.13,5.15,0,3,1.84,5.06,4.92,5.06" transform="translate(-2.72 -28.12)"/><path class="cls-16" d="M64.28,44.22H61.67a4,4,0,0,1,.88-.21h2.61a4.19,4.19,0,0,0-.88.21" transform="translate(-2.72 -28.12)"/><path class="cls-15" d="M65.16,44H62.55a4.94,4.94,0,0,1,.68,0h2.62a5.09,5.09,0,0,0-.69,0" transform="translate(-2.72 -28.12)"/></g></g></g><path class="cls-22" d="M70,48.69a6.9,6.9,0,0,1-.06.85h-7A3.21,3.21,0,0,0,66.32,53a6.74,6.74,0,0,0,2.78-.52l.31,1.3a8,8,0,0,1-3.34.62c-3.08,0-4.92-2-4.92-5.06S62.93,44,65.85,44C69.12,44,70,46.85,70,48.69Zm-1.76-.45c0-1.16-.48-3-2.53-3-1.84,0-2.65,1.69-2.79,3h5.32" transform="translate(-2.72 -28.12)"/><g class="cls-2"><g class="cls-46"><g class="cls-2"><path class="cls-12" d="M55,54.46H52.41c.21,0,.42,0,.62,0h2.62a4.4,4.4,0,0,1-.62,0" transform="translate(-2.72 -28.12)"/><path class="cls-13" d="M55.65,54.42H53a4.32,4.32,0,0,0,.86-.21h2.62a4.32,4.32,0,0,1-.86.21" transform="translate(-2.72 -28.12)"/><path class="cls-4" d="M56.51,54.21H53.89c1.72-.6,3.08-2.31,3.08-5.14C57,46,55.14,44,52.72,44h2.62c2.42,0,4.24,2.06,4.24,5.11,0,2.83-1.35,4.54-3.07,5.14" transform="translate(-2.72 -28.12)"/></g></g></g><g class="cls-2"><g class="cls-47"><g class="cls-2"><path class="cls-15" d="M54.72,53H52.1a3.29,3.29,0,0,0,.45,0h2.61a3.15,3.15,0,0,1-.44,0" transform="translate(-2.72 -28.12)"/><path class="cls-16" d="M55.16,53H52.55a3.16,3.16,0,0,0,.55-.13h2.62a3.27,3.27,0,0,1-.56.13" transform="translate(-2.72 -28.12)"/><path class="cls-10" d="M55.72,52.87H53.1c1.31-.46,2-1.85,2-3.72s-1-3.73-3-3.73h2.61c1.93,0,3,1.72,3,3.73s-.74,3.26-2,3.72" transform="translate(-2.72 -28.12)"/></g></g></g><g class="cls-2"><g class="cls-48"><g class="cls-2"><path class="cls-4" d="M52,47.68H49.41a3,3,0,0,1,1.88-2.11h2.62A3,3,0,0,0,52,47.68" transform="translate(-2.72 -28.12)"/><path class="cls-13" d="M53.91,45.57H51.29a2.31,2.31,0,0,1,.52-.12h2.62a2.31,2.31,0,0,0-.52.12" transform="translate(-2.72 -28.12)"/><path class="cls-12" d="M54.43,45.45H51.81a2.19,2.19,0,0,1,.36,0h2.61a2,2,0,0,0-.35,0" transform="translate(-2.72 -28.12)"/></g></g></g><g class="cls-2"><g class="cls-49"><g class="cls-2"><path class="cls-4" d="M54.72,53H52.1a2.82,2.82,0,0,1-2.73-2.14H52A2.82,2.82,0,0,0,54.72,53" transform="translate(-2.72 -28.12)"/></g></g></g><g class="cls-2"><g class="cls-50"><g class="cls-2"><path class="cls-10" d="M55,54.46H52.41a3.52,3.52,0,0,1-3.08-1.58h2.61A3.53,3.53,0,0,0,55,54.46" transform="translate(-2.72 -28.12)"/></g></g></g><rect class="cls-5" x="46.57" y="24.77" width="2.62" height="5.44"/><g class="cls-2"><g class="cls-51"><g class="cls-2"><path class="cls-4" d="M52,50.89H49.37a4.19,4.19,0,0,1-.08-.74h2.62a3.43,3.43,0,0,0,.08.74" transform="translate(-2.72 -28.12)"/></g></g></g><rect class="cls-5" x="46.57" y="20.31" width="2.62" height="1.72"/><path class="cls-23" d="M54.78,45.42c1.93,0,3,1.72,3,3.73,0,2.3-1.12,3.88-3,3.88A2.82,2.82,0,0,1,52,50.89a3.43,3.43,0,0,1-.08-.74V48.43a3.67,3.67,0,0,1,.11-.75A2.91,2.91,0,0,1,54.78,45.42Z" transform="translate(-2.72 -28.12)"/><g class="cls-2"><g class="cls-52"><g class="cls-2"><path class="cls-4" d="M51.91,48.43H49.29a3.09,3.09,0,0,1,.12-.75H52a3.67,3.67,0,0,0-.11.75" transform="translate(-2.72 -28.12)"/></g></g></g><g class="cls-2"><g class="cls-53"><g class="cls-2"><path class="cls-10" d="M51.78,45.92H49.16a3.93,3.93,0,0,1,2.07-1.72h2.61a3.94,3.94,0,0,0-2.06,1.72" transform="translate(-2.72 -28.12)"/><path class="cls-16" d="M53.84,44.2H51.23a4.1,4.1,0,0,1,.82-.19h2.61a4.27,4.27,0,0,0-.82.19" transform="translate(-2.72 -28.12)"/><path class="cls-15" d="M54.66,44H52.05a4.8,4.8,0,0,1,.67,0h2.62a4.94,4.94,0,0,0-.68,0" transform="translate(-2.72 -28.12)"/></g></g></g><polygon class="cls-5" points="49.02 17.8 46.4 17.8 46.32 16.08 48.94 16.08 49.02 17.8"/><polygon class="cls-6" points="47.38 30.21 44.77 30.21 46.57 30.21 49.19 30.21 47.38 30.21"/><rect class="cls-7" x="44.77" y="19.36" width="2.62" height="10.85"/><path class="cls-22" d="M55.34,44c2.42,0,4.24,2.06,4.24,5.11,0,3.61-2.19,5.39-4.55,5.39a3.53,3.53,0,0,1-3.09-1.58l0,5.45H50.1V47.47c0-1.28,0-2.32-.08-3.27h1.64l.08,1.72h0A3.93,3.93,0,0,1,55.34,44ZM54.72,53c1.92,0,3-1.58,3-3.88,0-2-1-3.73-3-3.73A2.91,2.91,0,0,0,52,47.68a3.67,3.67,0,0,0-.11.75v1.72a3.43,3.43,0,0,0,.08.74A2.82,2.82,0,0,0,54.72,53" transform="translate(-2.72 -28.12)"/><g class="cls-2"><g class="cls-54"><g class="cls-2"><path class="cls-10" d="M50.1,47.47H47.48c0-1.28,0-2.32-.08-3.27H50c0,.95.08,2,.08,3.27" transform="translate(-2.72 -28.12)"/></g></g></g><g class="cls-2"><g class="cls-55"><g class="cls-2"><path class="cls-12" d="M42.82,54.46H40.2a6.13,6.13,0,0,0,.74-.05h2.61a6,6,0,0,1-.73.05" transform="translate(-2.72 -28.12)"/><path class="cls-13" d="M43.55,54.41H40.94a6.28,6.28,0,0,0,1-.24h2.61a5.82,5.82,0,0,1-1,.24" transform="translate(-2.72 -28.12)"/><path class="cls-4" d="M44.57,54.17H42a4.94,4.94,0,0,0,3.23-5c0-3.07-1.94-5.17-4.82-5.17H43c2.88,0,4.82,2.1,4.82,5.17a4.93,4.93,0,0,1-3.24,5" transform="translate(-2.72 -28.12)"/></g></g></g><g class="cls-2"><g class="cls-56"><g class="cls-2"><path class="cls-15" d="M42.9,53.09H40.28l.37,0h2.62l-.37,0" transform="translate(-2.72 -28.12)"/><path class="cls-16" d="M43.27,53.07H40.65a2.72,2.72,0,0,0,.51-.13h2.62a2.93,2.93,0,0,1-.51.13" transform="translate(-2.72 -28.12)"/><path class="cls-10" d="M43.78,52.94H41.16a3.75,3.75,0,0,0,2.17-3.75c0-1.7-.85-3.86-3-3.86H43c2.14,0,3,2.16,3,3.86a3.76,3.76,0,0,1-2.17,3.75" transform="translate(-2.72 -28.12)"/></g></g></g><g class="cls-2"><g class="cls-57"><g class="cls-2"><path class="cls-4" d="M42.9,53.09H40.28c-1.78,0-3-1.66-3-3.86,0-1.59.64-3.23,2.09-3.74H42c-1.45.51-2.1,2.15-2.1,3.74,0,2.2,1.26,3.86,3,3.86" transform="translate(-2.72 -28.12)"/><path class="cls-13" d="M42,45.49H39.34a3.39,3.39,0,0,1,.55-.13h2.62a3.16,3.16,0,0,0-.55.13" transform="translate(-2.72 -28.12)"/><path class="cls-12" d="M42.51,45.36H39.89a3.15,3.15,0,0,1,.44,0H43a3,3,0,0,0-.44,0" transform="translate(-2.72 -28.12)"/></g></g></g><polygon class="cls-26" points="47.3 16.08 44.69 16.08 46.32 16.08 48.94 16.08 47.3 16.08"/><g class="cls-2"><g class="cls-58"><g class="cls-2"><path class="cls-10" d="M42.82,54.46H40.2c-2.7,0-4.8-2-4.8-5.17a5,5,0,0,1,3.22-5h2.61a5,5,0,0,0-3.21,5c0,3.18,2.09,5.17,4.8,5.17" transform="translate(-2.72 -28.12)"/><path class="cls-16" d="M41.23,44.25H38.62a4.7,4.7,0,0,1,1-.23h2.61a4.84,4.84,0,0,0-1,.23" transform="translate(-2.72 -28.12)"/><path class="cls-15" d="M42.23,44H39.62a4.65,4.65,0,0,1,.75-.06H43a4.77,4.77,0,0,0-.76.06" transform="translate(-2.72 -28.12)"/></g></g></g><path class="cls-22" d="M43,44c2.88,0,4.82,2.1,4.82,5.17,0,3.71-2.56,5.33-5,5.33-2.71,0-4.8-2-4.8-5.17C38,45.94,40.21,44,43,44Zm-.09,9.13c1.74,0,3.05-1.64,3.05-3.9,0-1.7-.86-3.86-3-3.86s-3.09,2-3.09,3.9c0,2.2,1.26,3.86,3,3.86" transform="translate(-2.72 -28.12)"/><rect class="cls-5" x="31.8" y="15.91" width="2.62" height="1.72"/><g class="cls-2"><g class="cls-59"><g class="cls-2"><path class="cls-4" d="M37.13,44H34.51A1.9,1.9,0,0,0,34,44h2.62a1.9,1.9,0,0,1,.51.07" transform="translate(-2.72 -28.12)"/></g></g></g><g class="cls-2"><g class="cls-60"><g class="cls-2"><path class="cls-10" d="M37.13,45.75H34.51a2.71,2.71,0,0,0-.62-.06h2.62a2.83,2.83,0,0,1,.62.06" transform="translate(-2.72 -28.12)"/></g></g></g><g class="cls-2"><g class="cls-61"><g class="cls-2"><path class="cls-12" d="M36.18,45.71H33.56l.33,0h2.62l-.33,0" transform="translate(-2.72 -28.12)"/></g></g></g><g class="cls-2"><g class="cls-62"><g class="cls-2"><path class="cls-4" d="M34.07,48H31.45a2.75,2.75,0,0,1,1.68-2.21h2.61A2.74,2.74,0,0,0,34.07,48" transform="translate(-2.72 -28.12)"/><path class="cls-13" d="M35.74,45.82H33.13a3,3,0,0,1,.43-.11h2.62a3.15,3.15,0,0,0-.44.11" transform="translate(-2.72 -28.12)"/><path class="cls-12" d="M36.18,45.71H33.56l.33,0h2.62l-.33,0" transform="translate(-2.72 -28.12)"/></g></g></g><rect class="cls-5" x="28.65" y="20.76" width="2.62" height="5.35"/><g class="cls-2"><g class="cls-63"><g class="cls-2"><path class="cls-4" d="M34,48.88H31.37a5.34,5.34,0,0,1,.08-.85h2.62a5.34,5.34,0,0,0-.08.85" transform="translate(-2.72 -28.12)"/></g></g></g><g class="cls-2"><g class="cls-64"><g class="cls-2"><path class="cls-10" d="M33.84,46.17H31.22a3.22,3.22,0,0,1,1.92-2.06h2.62a3.22,3.22,0,0,0-1.92,2.06" transform="translate(-2.72 -28.12)"/><path class="cls-16" d="M35.76,44.11H33.14a2.36,2.36,0,0,1,.51-.12h2.62a2.11,2.11,0,0,0-.51.12" transform="translate(-2.72 -28.12)"/><path class="cls-15" d="M36.27,44H33.65A2.07,2.07,0,0,1,34,44h2.62a2,2,0,0,0-.35,0" transform="translate(-2.72 -28.12)"/></g></g></g><polygon class="cls-5" points="31.05 18.05 28.43 18.05 28.36 16.08 30.98 16.08 31.05 18.05"/><polygon class="cls-6" points="29.47 26.11 26.86 26.11 28.65 26.11 31.27 26.11 29.47 26.11"/><rect class="cls-7" x="26.86" y="19.21" width="2.62" height="6.9"/><path class="cls-22" d="M36.62,44a1.93,1.93,0,0,1,.51.06v1.72a2.83,2.83,0,0,0-.62-.06A2.55,2.55,0,0,0,34.07,48a5.34,5.34,0,0,0-.08.85v5.34h-1.8v-6.9c0-1.18,0-2.19-.08-3.12H33.7l.06,2h.08A3,3,0,0,1,36.62,44Z" transform="translate(-2.72 -28.12)"/><g class="cls-2"><g class="cls-65"><g class="cls-2"><path class="cls-10" d="M32.19,47.32H29.57c0-1.18,0-2.19-.08-3.12h2.62c.06.93.08,1.94.08,3.12" transform="translate(-2.72 -28.12)"/></g></g></g><polygon class="cls-26" points="29.39 16.08 26.77 16.08 28.36 16.08 30.98 16.08 29.39 16.08"/><polygon class="cls-5" points="25.09 23.23 22.47 23.23 25.2 16.08 27.82 16.08 25.09 23.23"/><polygon class="cls-26" points="25.89 16.08 23.28 16.08 25.2 16.08 27.82 16.08 25.89 16.08"/><polygon class="cls-7" points="23.91 21.97 21.29 21.97 23.28 16.08 25.89 16.08 23.91 21.97"/><g class="cls-2"><g class="cls-66"><g class="cls-2"><path class="cls-13" d="M22.13,58.81H19.51a3.9,3.9,0,0,0,.49-.14h2.62a3.9,3.9,0,0,1-.49.14" transform="translate(-2.72 -28.12)"/><path class="cls-4" d="M22.62,58.67H20a5.14,5.14,0,0,0,1.75-1c1.24-1.08,2.13-2.85,3.44-6.29H27.8c-1.3,3.44-2.19,5.21-3.43,6.29a5.24,5.24,0,0,1-1.75,1" transform="translate(-2.72 -28.12)"/></g></g></g><g class="cls-2"><g class="cls-67"><g class="cls-2"><path class="cls-4" d="M26,52.17H23.36c-.21-.59-.45-1.38-.68-2.05h2.61c.24.67.48,1.46.69,2.05" transform="translate(-2.72 -28.12)"/></g></g></g><g class="cls-2"><g class="cls-68"><g class="cls-2"><path class="cls-4" d="M26,52.17H23.36c-.21-.59-.45-1.38-.68-2.05h2.61c.24.67.48,1.46.69,2.05" transform="translate(-2.72 -28.12)"/></g></g></g><g class="cls-2"><g class="cls-69"><g class="cls-2"><path class="cls-10" d="M25.94,52.17H23.32c.23-.59.44-1.37.69-2.09h2.61c-.25.73-.45,1.5-.68,2.09" transform="translate(-2.72 -28.12)"/></g></g></g><g class="cls-2"><g class="cls-70"><g class="cls-2"><path class="cls-4" d="M26,52.17H23.36c-.21-.59-.45-1.38-.68-2.05h2.61c.24.67.48,1.46.69,2.05" transform="translate(-2.72 -28.12)"/></g></g></g><g class="cls-2"><g class="cls-71"><g class="cls-2"><path class="cls-10" d="M23.27,56.38H20.66a5.45,5.45,0,0,0,1.52-2,1.46,1.46,0,0,0,.15-.43,1.43,1.43,0,0,0-.13-.48h2.62a1.35,1.35,0,0,1,.12.48,1.38,1.38,0,0,1-.14.43,5.35,5.35,0,0,1-1.53,2" transform="translate(-2.72 -28.12)"/></g></g></g><polygon class="cls-5" points="22.58 22 19.96 22 17.77 16.08 20.39 16.08 22.58 22"/><g class="cls-2"><g class="cls-72"><g class="cls-2"><path class="cls-16" d="M21.68,57.28H19.06l.09,0h2.62l-.09,0" transform="translate(-2.72 -28.12)"/><path class="cls-10" d="M21.77,57.25H19.15a5.09,5.09,0,0,0,1.51-.87h2.61a5.05,5.05,0,0,1-1.5.87" transform="translate(-2.72 -28.12)"/></g></g></g><polygon class="cls-7" points="19.41 30.69 16.8 30.69 16.35 29.16 18.96 29.16 19.41 30.69"/><path class="cls-22" d="M30.53,44.2,27.8,51.34c-1.3,3.44-2.19,5.21-3.43,6.29a5.07,5.07,0,0,1-2.24,1.18l-.45-1.53a5.13,5.13,0,0,0,1.59-.9,5.35,5.35,0,0,0,1.53-2,1.38,1.38,0,0,0,.14-.43,1.35,1.35,0,0,0-.12-.48l-3.7-9.24h2l2.19,5.92c.24.67.48,1.46.65,2.05.23-.59.43-1.36.68-2.09l2-5.88Z" transform="translate(-2.72 -28.12)"/><polygon class="cls-26" points="18.4 16.08 15.78 16.08 17.77 16.08 20.39 16.08 18.4 16.08"/><polygon class="cls-7" points="22.1 25.33 19.48 25.33 15.78 16.08 18.4 16.08 22.1 25.33"/><g class="cls-2"><g class="cls-73"><g class="cls-2"><path class="cls-4" d="M17.87,52.34H15.25a7.37,7.37,0,0,0,2-5.43,6.47,6.47,0,0,0-2-5c-1.22-1.13-3.07-1.73-5.65-1.73h2.61c2.59,0,4.43.6,5.66,1.73a6.47,6.47,0,0,1,2,5,7.4,7.4,0,0,1-2,5.43" transform="translate(-2.72 -28.12)"/></g></g></g><g class="cls-2"><g class="cls-74"><g class="cls-2"><path class="cls-15" d="M12.06,52.9H9.44a7.85,7.85,0,0,0,1.21-.08h2.61a7.72,7.72,0,0,1-1.2.08" transform="translate(-2.72 -28.12)"/><path class="cls-16" d="M13.26,52.82H10.65a6.44,6.44,0,0,0,1.31-.3h2.62a6.54,6.54,0,0,1-1.32.3" transform="translate(-2.72 -28.12)"/><path class="cls-10" d="M14.58,52.52H12c2.23-.78,3.42-2.71,3.42-5.55,0-3.29-1.84-5.38-5.65-5.38h2.61C16.15,41.59,18,43.68,18,47c0,2.84-1.19,4.77-3.42,5.55" transform="translate(-2.72 -28.12)"/></g></g></g><g class="cls-2"><g class="cls-75"><g class="cls-2"><path class="cls-12" d="M11.7,54.35H9.09a13.59,13.59,0,0,0,1.85-.12h2.61a13.59,13.59,0,0,1-1.85.12" transform="translate(-2.72 -28.12)"/><path class="cls-13" d="M13.55,54.23H10.94a9.15,9.15,0,0,0,1.92-.45h2.62a9.25,9.25,0,0,1-1.93.45" transform="translate(-2.72 -28.12)"/><path class="cls-4" d="M15.48,53.78H12.86a6,6,0,0,0,2.39-1.44h2.62a6.12,6.12,0,0,1-2.39,1.44" transform="translate(-2.72 -28.12)"/></g></g></g><g class="cls-2"><g class="cls-76"><g class="cls-2"><path class="cls-4" d="M12.06,52.9H9.44a10.48,10.48,0,0,1-1.82-.11h2.62a10.41,10.41,0,0,0,1.82.11" transform="translate(-2.72 -28.12)"/></g></g></g><g class="cls-2"><g class="cls-77"><g class="cls-2"><path class="cls-13" d="M10.24,41.77H7.62l.48-.08h2.62l-.48.08" transform="translate(-2.72 -28.12)"/><path class="cls-12" d="M10.72,41.69H8.1a11.9,11.9,0,0,1,1.63-.1h2.61a11.85,11.85,0,0,0-1.62.1" transform="translate(-2.72 -28.12)"/></g></g></g><rect class="cls-5" x="4.91" y="13.65" width="2.62" height="11.03"/><path class="cls-23" d="M12.34,41.59C16.15,41.59,18,43.68,18,47c0,3.77-2.1,5.93-5.94,5.93a10.41,10.41,0,0,1-1.82-.11v-11A10.57,10.57,0,0,1,12.34,41.59Z" transform="translate(-2.72 -28.12)"/><g class="cls-2"><g class="cls-78"><g class="cls-2"><path class="cls-10" d="M11.7,54.35H9.09a30,30,0,0,1-3.27-.16H8.43a30.24,30.24,0,0,0,3.27.16" transform="translate(-2.72 -28.12)"/></g></g></g><rect class="cls-7" x="3.1" y="12.33" width="2.62" height="13.74"/><g class="cls-2"><g class="cls-79"><g class="cls-2"><path class="cls-16" d="M8.43,40.45H5.82l.31-.05H8.75l-.32.05" transform="translate(-2.72 -28.12)"/><path class="cls-15" d="M8.75,40.4H6.13a26.2,26.2,0,0,1,3.52-.24h2.61a26,26,0,0,0-3.51.24" transform="translate(-2.72 -28.12)"/></g></g></g><path class="cls-22" d="M17.92,41.89a6.47,6.47,0,0,1,2,5,7.4,7.4,0,0,1-2,5.43c-1.3,1.31-3.45,2-6.17,2a30.24,30.24,0,0,1-3.27-.16V40.45a25.23,25.23,0,0,1,3.83-.29C14.85,40.16,16.69,40.76,17.92,41.89Zm-5.86,11C15.9,52.9,18,50.74,18,47c0-3.29-1.85-5.38-5.66-5.38a10.57,10.57,0,0,0-2.1.18v11a10.41,10.41,0,0,0,1.82.11" transform="translate(-2.72 -28.12)"/><path class="cls-23" d="M87.07,28.12a12,12,0,0,1,12,12V58.2a12,12,0,0,1-12,12H17.32a12,12,0,0,1-12-12V40.11a12,12,0,0,1,12-12ZM17.87,52.34a7.4,7.4,0,0,0,2-5.43,6.47,6.47,0,0,0-2-5c-1.23-1.13-3.07-1.73-5.66-1.73a25.23,25.23,0,0,0-3.83.29V54.19a30.24,30.24,0,0,0,3.27.16c2.72,0,4.87-.7,6.17-2m61.47,1.88H81c-.06-.68-.08-1.7-.08-2.59V39.51H79.07v6A3.48,3.48,0,0,0,76,44c-2.43,0-4.51,2.06-4.48,5.4,0,3,1.86,5.1,4.28,5.1a3.72,3.72,0,0,0,3.41-2h.05l.08,1.73M27.8,51.34l2.73-7.14H28.61l-2,5.88c-.25.72-.45,1.5-.64,2.09-.21-.59-.45-1.38-.69-2.05L23.1,44.2h-2l3.7,9.24a1.35,1.35,0,0,1,.12.48,1.38,1.38,0,0,1-.14.43,5.35,5.35,0,0,1-1.53,2,5.13,5.13,0,0,1-1.59.9l.45,1.53a5.07,5.07,0,0,0,2.24-1.18c1.24-1.08,2.13-2.85,3.43-6.29M55,54.46c2.36,0,4.55-1.78,4.55-5.39,0-3-1.82-5.11-4.24-5.11a3.93,3.93,0,0,0-3.56,2h0l-.08-1.72H50c0,.95.08,2,.08,3.27V58.33h1.81V52.88A3.62,3.62,0,0,0,55,54.46m-12.21,0c2.43,0,5-1.62,5-5.33C47.81,46.06,45.87,44,43,44s-5,2-5,5.33c0,3.18,2.09,5.17,4.8,5.17m27.11-4.92a6.9,6.9,0,0,0,.06-.85c0-1.84-.87-4.73-4.14-4.73-2.92,0-4.7,2.39-4.7,5.41s1.84,5.06,4.92,5.06a8,8,0,0,0,3.34-.62l-.31-1.3a6.74,6.74,0,0,1-2.78.52,3.21,3.21,0,0,1-3.43-3.49h7m24.36,4.68H96a14.47,14.47,0,0,1-.17-2.4V48.07c0-2-.74-4.11-3.81-4.11a6.24,6.24,0,0,0-3.29.9l.42,1.2a5,5,0,0,1,2.6-.75A2.08,2.08,0,0,1,94,47.64v.2h-.08c-3.83,0-5.94,1.33-5.94,3.74A2.85,2.85,0,0,0,91,54.46,3.73,3.73,0,0,0,94.09,53h.06l.14,1.26M37.13,45.75V44a1.9,1.9,0,0,0-.51-.07,3,3,0,0,0-2.78,2.21h-.08l-.06-2H32.11c.06.93.08,1.94.08,3.12v6.9H34V48.88a5.34,5.34,0,0,1,.08-.85,2.55,2.55,0,0,1,2.44-2.34,2.83,2.83,0,0,1,.62.06m48.6,8.47v-10H83.91v10h1.82m-1-11.72a1.13,1.13,0,1,0,0-2.26,1.1,1.1,0,0,0-1.14,1.14,1.09,1.09,0,0,0,1.09,1.12" transform="translate(-2.72 -28.12)"/><path class="cls-22" d="M84.77,42.5a1.09,1.09,0,0,1-1.09-1.12,1.1,1.1,0,0,1,1.14-1.14,1.13,1.13,0,1,1,0,2.26Z" transform="translate(-2.72 -28.12)"/><polygon class="cls-26" points="76.35 11.39 73.73 11.39 75.56 11.39 78.18 11.39 76.35 11.39"/><path class="cls-23" d="M76.36,45.4A2.68,2.68,0,0,1,79,47.51a3.36,3.36,0,0,1,.08.77V50a3.17,3.17,0,0,1-.08.78A2.75,2.75,0,0,1,76.32,53c-2,0-3-1.67-3-3.71C73.36,47.06,74.47,45.4,76.36,45.4Z" transform="translate(-2.72 -28.12)"/><path class="cls-23" d="M43,45.33c2.14,0,3,2.16,3,3.86,0,2.26-1.31,3.9-3.05,3.9s-3-1.66-3-3.86C39.86,47.32,40.8,45.33,43,45.33Z" transform="translate(-2.72 -28.12)"/><polygon class="cls-6" points="14.61 0 11.99 0 81.73 0 84.35 0 14.61 0"/><g class="cls-2"><g class="cls-80"><g class="cls-2"><path class="cls-4" d="M17.32,70.2H14.71a12,12,0,0,1-12-12H5.33a12,12,0,0,0,12,12" transform="translate(-2.72 -28.12)"/></g></g></g><rect class="cls-5" y="12" width="2.62" height="18.09"/><g class="cls-2"><g class="cls-81"><g class="cls-2"><path class="cls-4" d="M5.33,40.11H2.72a12,12,0,0,1,8.06-11.33H13.4A12,12,0,0,0,5.33,40.11" transform="translate(-2.72 -28.12)"/><path class="cls-13" d="M13.4,28.78H10.78a11.18,11.18,0,0,1,2.3-.55H15.7a11.18,11.18,0,0,0-2.3.55" transform="translate(-2.72 -28.12)"/><path class="cls-12" d="M15.7,28.23H13.08a11,11,0,0,1,1.63-.11h2.61a10.84,10.84,0,0,0-1.62.11" transform="translate(-2.72 -28.12)"/></g></g></g></g></svg>